<mxfile host="app.diagrams.net" modified="2023-03-16T08:06:49.090Z" agent="5.0 (Macintosh; Intel Mac OS X 10_15_7) AppleWebKit/537.36 (KHTML, like Gecko) Chrome/111.0.0.0 Safari/537.36" etag="ulxWsHUz1fxNI4FT36lR" version="21.0.6" type="github">
  <diagram name="第 1 页" id="U0-t1V0-70jRsBMz5Xub">
    <mxGraphModel dx="2503" dy="2331" grid="1" gridSize="10" guides="1" tooltips="1" connect="1" arrows="1" fold="1" page="1" pageScale="1" pageWidth="850" pageHeight="1100" math="0" shadow="0">
      <root>
        <mxCell id="0" />
        <mxCell id="1" parent="0" />
        <mxCell id="hzbVGYCkBPGxg4_tdvoD-3" value="kkdb" style="aspect=fixed;perimeter=ellipsePerimeter;html=1;align=center;shadow=0;dashed=0;spacingTop=3;image;image=img/lib/active_directory/databases.svg;" vertex="1" parent="1">
          <mxGeometry x="40" y="-710" width="50" height="49" as="geometry" />
        </mxCell>
        <mxCell id="hzbVGYCkBPGxg4_tdvoD-216" style="edgeStyle=orthogonalEdgeStyle;rounded=0;orthogonalLoop=1;jettySize=auto;html=1;entryX=0;entryY=0.5;entryDx=0;entryDy=0;" edge="1" parent="1" source="hzbVGYCkBPGxg4_tdvoD-6" target="hzbVGYCkBPGxg4_tdvoD-97">
          <mxGeometry relative="1" as="geometry" />
        </mxCell>
        <mxCell id="hzbVGYCkBPGxg4_tdvoD-217" style="edgeStyle=orthogonalEdgeStyle;rounded=0;orthogonalLoop=1;jettySize=auto;html=1;" edge="1" parent="1" source="hzbVGYCkBPGxg4_tdvoD-6" target="hzbVGYCkBPGxg4_tdvoD-99">
          <mxGeometry relative="1" as="geometry" />
        </mxCell>
        <mxCell id="hzbVGYCkBPGxg4_tdvoD-6" value="affiliate_web" style="aspect=fixed;perimeter=ellipsePerimeter;html=1;align=center;shadow=0;dashed=0;spacingTop=3;image;image=img/lib/active_directory/data_jack.svg;" vertex="1" parent="1">
          <mxGeometry x="314.25" y="-710" width="27.500000000000004" height="50" as="geometry" />
        </mxCell>
        <mxCell id="hzbVGYCkBPGxg4_tdvoD-124" value="" style="edgeStyle=orthogonalEdgeStyle;rounded=0;orthogonalLoop=1;jettySize=auto;html=1;" edge="1" parent="1" source="hzbVGYCkBPGxg4_tdvoD-98" target="hzbVGYCkBPGxg4_tdvoD-6">
          <mxGeometry relative="1" as="geometry" />
        </mxCell>
        <mxCell id="hzbVGYCkBPGxg4_tdvoD-98" value="affiliate" style="aspect=fixed;perimeter=ellipsePerimeter;html=1;align=center;shadow=0;dashed=0;spacingTop=3;image;image=img/lib/active_directory/data_jack.svg;" vertex="1" parent="1">
          <mxGeometry x="314.25" y="-820" width="27.500000000000004" height="50" as="geometry" />
        </mxCell>
        <mxCell id="hzbVGYCkBPGxg4_tdvoD-130" style="edgeStyle=orthogonalEdgeStyle;rounded=0;orthogonalLoop=1;jettySize=auto;html=1;entryX=0;entryY=0.5;entryDx=0;entryDy=0;" edge="1" parent="1" source="hzbVGYCkBPGxg4_tdvoD-97" target="hzbVGYCkBPGxg4_tdvoD-101">
          <mxGeometry relative="1" as="geometry" />
        </mxCell>
        <mxCell id="hzbVGYCkBPGxg4_tdvoD-97" value="affiliate_order&lt;br&gt;" style="aspect=fixed;perimeter=ellipsePerimeter;html=1;align=center;shadow=0;dashed=0;spacingTop=3;image;image=img/lib/active_directory/data_jack.svg;" vertex="1" parent="1">
          <mxGeometry x="469.5" y="-770" width="27.500000000000004" height="50" as="geometry" />
        </mxCell>
        <mxCell id="hzbVGYCkBPGxg4_tdvoD-129" style="edgeStyle=orthogonalEdgeStyle;rounded=0;orthogonalLoop=1;jettySize=auto;html=1;entryX=0;entryY=0.5;entryDx=0;entryDy=0;" edge="1" parent="1" source="hzbVGYCkBPGxg4_tdvoD-99" target="hzbVGYCkBPGxg4_tdvoD-101">
          <mxGeometry relative="1" as="geometry" />
        </mxCell>
        <mxCell id="hzbVGYCkBPGxg4_tdvoD-99" value="affiliate_attribution_order" style="aspect=fixed;perimeter=ellipsePerimeter;html=1;align=center;shadow=0;dashed=0;spacingTop=3;image;image=img/lib/active_directory/data_jack.svg;" vertex="1" parent="1">
          <mxGeometry x="469.5" y="-660" width="27.500000000000004" height="50" as="geometry" />
        </mxCell>
        <mxCell id="hzbVGYCkBPGxg4_tdvoD-218" style="edgeStyle=orthogonalEdgeStyle;rounded=0;orthogonalLoop=1;jettySize=auto;html=1;" edge="1" parent="1" source="hzbVGYCkBPGxg4_tdvoD-100" target="hzbVGYCkBPGxg4_tdvoD-6">
          <mxGeometry relative="1" as="geometry" />
        </mxCell>
        <mxCell id="hzbVGYCkBPGxg4_tdvoD-100" value="order_tbl" style="aspect=fixed;perimeter=ellipsePerimeter;html=1;align=center;shadow=0;dashed=0;spacingTop=3;image;image=img/lib/active_directory/data_jack.svg;" vertex="1" parent="1">
          <mxGeometry x="171.25" y="-710" width="27.500000000000004" height="50" as="geometry" />
        </mxCell>
        <mxCell id="hzbVGYCkBPGxg4_tdvoD-128" value="" style="edgeStyle=orthogonalEdgeStyle;rounded=0;orthogonalLoop=1;jettySize=auto;html=1;" edge="1" parent="1" source="hzbVGYCkBPGxg4_tdvoD-107" target="hzbVGYCkBPGxg4_tdvoD-100">
          <mxGeometry relative="1" as="geometry" />
        </mxCell>
        <mxCell id="hzbVGYCkBPGxg4_tdvoD-107" value="order_lst" style="aspect=fixed;perimeter=ellipsePerimeter;html=1;align=center;shadow=0;dashed=0;spacingTop=3;image;image=img/lib/active_directory/data_jack.svg;" vertex="1" parent="1">
          <mxGeometry x="171.25" y="-820" width="27.500000000000004" height="50" as="geometry" />
        </mxCell>
        <mxCell id="hzbVGYCkBPGxg4_tdvoD-131" value="" style="edgeStyle=orthogonalEdgeStyle;rounded=0;orthogonalLoop=1;jettySize=auto;html=1;" edge="1" parent="1" source="hzbVGYCkBPGxg4_tdvoD-101" target="hzbVGYCkBPGxg4_tdvoD-102">
          <mxGeometry relative="1" as="geometry" />
        </mxCell>
        <mxCell id="hzbVGYCkBPGxg4_tdvoD-101" value="affiliate_settle" style="aspect=fixed;perimeter=ellipsePerimeter;html=1;align=center;shadow=0;dashed=0;spacingTop=3;image;image=img/lib/active_directory/data_jack.svg;" vertex="1" parent="1">
          <mxGeometry x="621.25" y="-710" width="27.500000000000004" height="50" as="geometry" />
        </mxCell>
        <mxCell id="hzbVGYCkBPGxg4_tdvoD-102" value="affiliate_settle_pay" style="aspect=fixed;perimeter=ellipsePerimeter;html=1;align=center;shadow=0;dashed=0;spacingTop=3;image;image=img/lib/active_directory/data_jack.svg;" vertex="1" parent="1">
          <mxGeometry x="752.25" y="-710" width="27.500000000000004" height="50" as="geometry" />
        </mxCell>
        <mxCell id="hzbVGYCkBPGxg4_tdvoD-4" value="kkdb_affiliate" style="aspect=fixed;perimeter=ellipsePerimeter;html=1;align=center;shadow=0;dashed=0;spacingTop=3;image;image=img/lib/active_directory/database.svg;" vertex="1" parent="1">
          <mxGeometry x="40" y="-480" width="50" height="37" as="geometry" />
        </mxCell>
        <mxCell id="hzbVGYCkBPGxg4_tdvoD-215" style="edgeStyle=orthogonalEdgeStyle;rounded=0;orthogonalLoop=1;jettySize=auto;html=1;" edge="1" parent="1" source="hzbVGYCkBPGxg4_tdvoD-104" target="hzbVGYCkBPGxg4_tdvoD-6">
          <mxGeometry relative="1" as="geometry" />
        </mxCell>
        <mxCell id="hzbVGYCkBPGxg4_tdvoD-104" value="affiliate_product_commission_rule" style="aspect=fixed;perimeter=ellipsePerimeter;html=1;align=center;shadow=0;dashed=0;spacingTop=3;image;image=img/lib/active_directory/data_jack.svg;" vertex="1" parent="1">
          <mxGeometry x="314.25" y="-540" width="27.500000000000004" height="50" as="geometry" />
        </mxCell>
        <mxCell id="hzbVGYCkBPGxg4_tdvoD-214" style="edgeStyle=orthogonalEdgeStyle;rounded=0;orthogonalLoop=1;jettySize=auto;html=1;entryX=0.5;entryY=1;entryDx=0;entryDy=0;" edge="1" parent="1" source="hzbVGYCkBPGxg4_tdvoD-105" target="hzbVGYCkBPGxg4_tdvoD-104">
          <mxGeometry relative="1" as="geometry" />
        </mxCell>
        <mxCell id="hzbVGYCkBPGxg4_tdvoD-105" value="affiliate_product_commission_setting" style="aspect=fixed;perimeter=ellipsePerimeter;html=1;align=center;shadow=0;dashed=0;spacingTop=3;image;image=img/lib/active_directory/data_jack.svg;" vertex="1" parent="1">
          <mxGeometry x="314.25" y="-420" width="27.500000000000004" height="50" as="geometry" />
        </mxCell>
        <mxCell id="hzbVGYCkBPGxg4_tdvoD-134" value="kkdb" style="aspect=fixed;perimeter=ellipsePerimeter;html=1;align=center;shadow=0;dashed=0;spacingTop=3;image;image=img/lib/active_directory/databases.svg;" vertex="1" parent="1">
          <mxGeometry x="890" y="-720" width="50" height="49" as="geometry" />
        </mxCell>
        <mxCell id="hzbVGYCkBPGxg4_tdvoD-210" style="edgeStyle=orthogonalEdgeStyle;rounded=0;orthogonalLoop=1;jettySize=auto;html=1;" edge="1" parent="1" source="hzbVGYCkBPGxg4_tdvoD-136" target="hzbVGYCkBPGxg4_tdvoD-140">
          <mxGeometry relative="1" as="geometry">
            <Array as="points">
              <mxPoint x="1250" y="-685" />
              <mxPoint x="1250" y="-745" />
            </Array>
          </mxGeometry>
        </mxCell>
        <mxCell id="hzbVGYCkBPGxg4_tdvoD-211" style="edgeStyle=orthogonalEdgeStyle;rounded=0;orthogonalLoop=1;jettySize=auto;html=1;entryX=0;entryY=0.5;entryDx=0;entryDy=0;" edge="1" parent="1" source="hzbVGYCkBPGxg4_tdvoD-136" target="hzbVGYCkBPGxg4_tdvoD-142">
          <mxGeometry relative="1" as="geometry">
            <Array as="points">
              <mxPoint x="1250" y="-685" />
              <mxPoint x="1250" y="-635" />
            </Array>
          </mxGeometry>
        </mxCell>
        <mxCell id="hzbVGYCkBPGxg4_tdvoD-136" value="affiliate_web" style="aspect=fixed;perimeter=ellipsePerimeter;html=1;align=center;shadow=0;dashed=0;spacingTop=3;image;image=img/lib/active_directory/data_jack.svg;" vertex="1" parent="1">
          <mxGeometry x="1164.25" y="-710" width="27.500000000000004" height="50" as="geometry" />
        </mxCell>
        <mxCell id="hzbVGYCkBPGxg4_tdvoD-137" value="" style="edgeStyle=orthogonalEdgeStyle;rounded=0;orthogonalLoop=1;jettySize=auto;html=1;" edge="1" parent="1" source="hzbVGYCkBPGxg4_tdvoD-138" target="hzbVGYCkBPGxg4_tdvoD-136">
          <mxGeometry relative="1" as="geometry" />
        </mxCell>
        <mxCell id="hzbVGYCkBPGxg4_tdvoD-138" value="affiliate" style="aspect=fixed;perimeter=ellipsePerimeter;html=1;align=center;shadow=0;dashed=0;spacingTop=3;image;image=img/lib/active_directory/data_jack.svg;" vertex="1" parent="1">
          <mxGeometry x="1164.25" y="-820" width="27.500000000000004" height="50" as="geometry" />
        </mxCell>
        <mxCell id="hzbVGYCkBPGxg4_tdvoD-139" style="edgeStyle=orthogonalEdgeStyle;rounded=0;orthogonalLoop=1;jettySize=auto;html=1;entryX=0;entryY=0.5;entryDx=0;entryDy=0;" edge="1" parent="1" source="hzbVGYCkBPGxg4_tdvoD-140" target="hzbVGYCkBPGxg4_tdvoD-149">
          <mxGeometry relative="1" as="geometry" />
        </mxCell>
        <mxCell id="hzbVGYCkBPGxg4_tdvoD-140" value="affiliate_order&lt;br&gt;" style="aspect=fixed;perimeter=ellipsePerimeter;html=1;align=center;shadow=0;dashed=0;spacingTop=3;image;image=img/lib/active_directory/data_jack.svg;" vertex="1" parent="1">
          <mxGeometry x="1319.5" y="-770" width="27.500000000000004" height="50" as="geometry" />
        </mxCell>
        <mxCell id="hzbVGYCkBPGxg4_tdvoD-141" style="edgeStyle=orthogonalEdgeStyle;rounded=0;orthogonalLoop=1;jettySize=auto;html=1;entryX=0;entryY=0.5;entryDx=0;entryDy=0;" edge="1" parent="1" source="hzbVGYCkBPGxg4_tdvoD-142" target="hzbVGYCkBPGxg4_tdvoD-149">
          <mxGeometry relative="1" as="geometry" />
        </mxCell>
        <mxCell id="hzbVGYCkBPGxg4_tdvoD-142" value="affiliate_attribution_order" style="aspect=fixed;perimeter=ellipsePerimeter;html=1;align=center;shadow=0;dashed=0;spacingTop=3;image;image=img/lib/active_directory/data_jack.svg;" vertex="1" parent="1">
          <mxGeometry x="1319.5" y="-660" width="27.500000000000004" height="50" as="geometry" />
        </mxCell>
        <mxCell id="hzbVGYCkBPGxg4_tdvoD-207" style="edgeStyle=orthogonalEdgeStyle;rounded=0;orthogonalLoop=1;jettySize=auto;html=1;entryX=0;entryY=0.5;entryDx=0;entryDy=0;" edge="1" parent="1" source="hzbVGYCkBPGxg4_tdvoD-144" target="hzbVGYCkBPGxg4_tdvoD-136">
          <mxGeometry relative="1" as="geometry" />
        </mxCell>
        <mxCell id="hzbVGYCkBPGxg4_tdvoD-144" value="order_tbl" style="aspect=fixed;perimeter=ellipsePerimeter;html=1;align=center;shadow=0;dashed=0;spacingTop=3;image;image=img/lib/active_directory/data_jack.svg;" vertex="1" parent="1">
          <mxGeometry x="1021.25" y="-710" width="27.500000000000004" height="50" as="geometry" />
        </mxCell>
        <mxCell id="hzbVGYCkBPGxg4_tdvoD-145" value="" style="edgeStyle=orthogonalEdgeStyle;rounded=0;orthogonalLoop=1;jettySize=auto;html=1;" edge="1" parent="1" source="hzbVGYCkBPGxg4_tdvoD-147" target="hzbVGYCkBPGxg4_tdvoD-144">
          <mxGeometry relative="1" as="geometry" />
        </mxCell>
        <mxCell id="hzbVGYCkBPGxg4_tdvoD-147" value="order_lst" style="aspect=fixed;perimeter=ellipsePerimeter;html=1;align=center;shadow=0;dashed=0;spacingTop=3;image;image=img/lib/active_directory/data_jack.svg;" vertex="1" parent="1">
          <mxGeometry x="1021.25" y="-820" width="27.500000000000004" height="50" as="geometry" />
        </mxCell>
        <mxCell id="hzbVGYCkBPGxg4_tdvoD-148" value="" style="edgeStyle=orthogonalEdgeStyle;rounded=0;orthogonalLoop=1;jettySize=auto;html=1;" edge="1" parent="1" source="hzbVGYCkBPGxg4_tdvoD-149" target="hzbVGYCkBPGxg4_tdvoD-150">
          <mxGeometry relative="1" as="geometry" />
        </mxCell>
        <mxCell id="hzbVGYCkBPGxg4_tdvoD-149" value="affiliate_settle" style="aspect=fixed;perimeter=ellipsePerimeter;html=1;align=center;shadow=0;dashed=0;spacingTop=3;image;image=img/lib/active_directory/data_jack.svg;" vertex="1" parent="1">
          <mxGeometry x="1471.25" y="-710" width="27.500000000000004" height="50" as="geometry" />
        </mxCell>
        <mxCell id="hzbVGYCkBPGxg4_tdvoD-150" value="affiliate_settle_pay" style="aspect=fixed;perimeter=ellipsePerimeter;html=1;align=center;shadow=0;dashed=0;spacingTop=3;image;image=img/lib/active_directory/data_jack.svg;" vertex="1" parent="1">
          <mxGeometry x="1602.25" y="-710" width="27.500000000000004" height="50" as="geometry" />
        </mxCell>
        <mxCell id="hzbVGYCkBPGxg4_tdvoD-155" value="" style="line;strokeWidth=4;direction=south;html=1;perimeter=backbonePerimeter;points=[];outlineConnect=0;" vertex="1" parent="1">
          <mxGeometry x="850" y="-840" width="10" height="610" as="geometry" />
        </mxCell>
        <mxCell id="hzbVGYCkBPGxg4_tdvoD-156" value="kkdb" style="aspect=fixed;perimeter=ellipsePerimeter;html=1;align=center;shadow=0;dashed=0;spacingTop=3;image;image=img/lib/active_directory/databases.svg;" vertex="1" parent="1">
          <mxGeometry x="1750" y="-694" width="50" height="49" as="geometry" />
        </mxCell>
        <mxCell id="hzbVGYCkBPGxg4_tdvoD-158" value="affiliate_web" style="aspect=fixed;perimeter=ellipsePerimeter;html=1;align=center;shadow=0;dashed=0;spacingTop=3;image;image=img/lib/active_directory/data_jack.svg;" vertex="1" parent="1">
          <mxGeometry x="2010" y="-689" width="27.500000000000004" height="50" as="geometry" />
        </mxCell>
        <mxCell id="hzbVGYCkBPGxg4_tdvoD-159" value="" style="edgeStyle=orthogonalEdgeStyle;rounded=0;orthogonalLoop=1;jettySize=auto;html=1;" edge="1" parent="1" source="hzbVGYCkBPGxg4_tdvoD-160" target="hzbVGYCkBPGxg4_tdvoD-158">
          <mxGeometry relative="1" as="geometry" />
        </mxCell>
        <mxCell id="hzbVGYCkBPGxg4_tdvoD-160" value="affiliate" style="aspect=fixed;perimeter=ellipsePerimeter;html=1;align=center;shadow=0;dashed=0;spacingTop=3;image;image=img/lib/active_directory/data_jack.svg;" vertex="1" parent="1">
          <mxGeometry x="2010" y="-799" width="27.500000000000004" height="50" as="geometry" />
        </mxCell>
        <mxCell id="hzbVGYCkBPGxg4_tdvoD-161" style="edgeStyle=orthogonalEdgeStyle;rounded=0;orthogonalLoop=1;jettySize=auto;html=1;entryX=0;entryY=0.5;entryDx=0;entryDy=0;" edge="1" parent="1" source="hzbVGYCkBPGxg4_tdvoD-162" target="hzbVGYCkBPGxg4_tdvoD-171">
          <mxGeometry relative="1" as="geometry" />
        </mxCell>
        <mxCell id="hzbVGYCkBPGxg4_tdvoD-162" value="affiliate_order&lt;br&gt;" style="aspect=fixed;perimeter=ellipsePerimeter;html=1;align=center;shadow=0;dashed=0;spacingTop=3;image;image=img/lib/active_directory/data_jack.svg;" vertex="1" parent="1">
          <mxGeometry x="2150" y="-749" width="27.500000000000004" height="50" as="geometry" />
        </mxCell>
        <mxCell id="hzbVGYCkBPGxg4_tdvoD-163" style="edgeStyle=orthogonalEdgeStyle;rounded=0;orthogonalLoop=1;jettySize=auto;html=1;entryX=0;entryY=0.5;entryDx=0;entryDy=0;" edge="1" parent="1" source="hzbVGYCkBPGxg4_tdvoD-164" target="hzbVGYCkBPGxg4_tdvoD-171">
          <mxGeometry relative="1" as="geometry" />
        </mxCell>
        <mxCell id="hzbVGYCkBPGxg4_tdvoD-164" value="affiliate_attribution_order" style="aspect=fixed;perimeter=ellipsePerimeter;html=1;align=center;shadow=0;dashed=0;spacingTop=3;image;image=img/lib/active_directory/data_jack.svg;" vertex="1" parent="1">
          <mxGeometry x="2150" y="-621" width="27.500000000000004" height="50" as="geometry" />
        </mxCell>
        <mxCell id="hzbVGYCkBPGxg4_tdvoD-191" style="edgeStyle=orthogonalEdgeStyle;rounded=0;orthogonalLoop=1;jettySize=auto;html=1;" edge="1" parent="1" source="hzbVGYCkBPGxg4_tdvoD-166" target="hzbVGYCkBPGxg4_tdvoD-175">
          <mxGeometry relative="1" as="geometry" />
        </mxCell>
        <mxCell id="hzbVGYCkBPGxg4_tdvoD-166" value="order_tbl" style="aspect=fixed;perimeter=ellipsePerimeter;html=1;align=center;shadow=0;dashed=0;spacingTop=3;image;image=img/lib/active_directory/data_jack.svg;" vertex="1" parent="1">
          <mxGeometry x="1900" y="-695" width="27.500000000000004" height="50" as="geometry" />
        </mxCell>
        <mxCell id="hzbVGYCkBPGxg4_tdvoD-167" value="" style="edgeStyle=orthogonalEdgeStyle;rounded=0;orthogonalLoop=1;jettySize=auto;html=1;" edge="1" parent="1" source="hzbVGYCkBPGxg4_tdvoD-169" target="hzbVGYCkBPGxg4_tdvoD-166">
          <mxGeometry relative="1" as="geometry" />
        </mxCell>
        <mxCell id="hzbVGYCkBPGxg4_tdvoD-192" style="edgeStyle=orthogonalEdgeStyle;rounded=0;orthogonalLoop=1;jettySize=auto;html=1;entryX=0;entryY=0.5;entryDx=0;entryDy=0;" edge="1" parent="1" source="hzbVGYCkBPGxg4_tdvoD-169" target="hzbVGYCkBPGxg4_tdvoD-175">
          <mxGeometry relative="1" as="geometry">
            <Array as="points">
              <mxPoint x="1830" y="-780" />
              <mxPoint x="1830" y="-505" />
            </Array>
          </mxGeometry>
        </mxCell>
        <mxCell id="hzbVGYCkBPGxg4_tdvoD-169" value="order_lst" style="aspect=fixed;perimeter=ellipsePerimeter;html=1;align=center;shadow=0;dashed=0;spacingTop=3;image;image=img/lib/active_directory/data_jack.svg;" vertex="1" parent="1">
          <mxGeometry x="1900" y="-805" width="27.500000000000004" height="50" as="geometry" />
        </mxCell>
        <mxCell id="hzbVGYCkBPGxg4_tdvoD-170" value="" style="edgeStyle=orthogonalEdgeStyle;rounded=0;orthogonalLoop=1;jettySize=auto;html=1;" edge="1" parent="1" source="hzbVGYCkBPGxg4_tdvoD-171" target="hzbVGYCkBPGxg4_tdvoD-172">
          <mxGeometry relative="1" as="geometry" />
        </mxCell>
        <mxCell id="hzbVGYCkBPGxg4_tdvoD-171" value="affiliate_settle" style="aspect=fixed;perimeter=ellipsePerimeter;html=1;align=center;shadow=0;dashed=0;spacingTop=3;image;image=img/lib/active_directory/data_jack.svg;" vertex="1" parent="1">
          <mxGeometry x="2301.75" y="-687" width="27.500000000000004" height="50" as="geometry" />
        </mxCell>
        <mxCell id="hzbVGYCkBPGxg4_tdvoD-172" value="affiliate_settle_pay" style="aspect=fixed;perimeter=ellipsePerimeter;html=1;align=center;shadow=0;dashed=0;spacingTop=3;image;image=img/lib/active_directory/data_jack.svg;" vertex="1" parent="1">
          <mxGeometry x="2432.75" y="-687" width="27.500000000000004" height="50" as="geometry" />
        </mxCell>
        <mxCell id="hzbVGYCkBPGxg4_tdvoD-173" value="kkdb_affiliate" style="aspect=fixed;perimeter=ellipsePerimeter;html=1;align=center;shadow=0;dashed=0;spacingTop=3;image;image=img/lib/active_directory/database.svg;" vertex="1" parent="1">
          <mxGeometry x="1760" y="-470" width="50" height="37" as="geometry" />
        </mxCell>
        <mxCell id="hzbVGYCkBPGxg4_tdvoD-193" style="edgeStyle=orthogonalEdgeStyle;rounded=0;orthogonalLoop=1;jettySize=auto;html=1;" edge="1" parent="1" source="hzbVGYCkBPGxg4_tdvoD-175" target="hzbVGYCkBPGxg4_tdvoD-158">
          <mxGeometry relative="1" as="geometry" />
        </mxCell>
        <mxCell id="hzbVGYCkBPGxg4_tdvoD-175" value="affiliate_product" style="aspect=fixed;perimeter=ellipsePerimeter;html=1;align=center;shadow=0;dashed=0;spacingTop=3;image;image=img/lib/active_directory/data_jack.svg;" vertex="1" parent="1">
          <mxGeometry x="1900" y="-530" width="27.500000000000004" height="50" as="geometry" />
        </mxCell>
        <mxCell id="hzbVGYCkBPGxg4_tdvoD-195" value="" style="edgeStyle=orthogonalEdgeStyle;rounded=0;orthogonalLoop=1;jettySize=auto;html=1;" edge="1" parent="1" source="hzbVGYCkBPGxg4_tdvoD-176" target="hzbVGYCkBPGxg4_tdvoD-175">
          <mxGeometry relative="1" as="geometry" />
        </mxCell>
        <mxCell id="hzbVGYCkBPGxg4_tdvoD-176" value="affiliate_tag" style="aspect=fixed;perimeter=ellipsePerimeter;html=1;align=center;shadow=0;dashed=0;spacingTop=3;image;image=img/lib/active_directory/data_jack.svg;" vertex="1" parent="1">
          <mxGeometry x="1900" y="-410" width="27.500000000000004" height="50" as="geometry" />
        </mxCell>
        <mxCell id="hzbVGYCkBPGxg4_tdvoD-177" value="" style="line;strokeWidth=4;direction=south;html=1;perimeter=backbonePerimeter;points=[];outlineConnect=0;" vertex="1" parent="1">
          <mxGeometry x="1700" y="-830" width="10" height="610" as="geometry" />
        </mxCell>
        <mxCell id="hzbVGYCkBPGxg4_tdvoD-185" style="edgeStyle=orthogonalEdgeStyle;rounded=0;orthogonalLoop=1;jettySize=auto;html=1;entryX=0;entryY=0.5;entryDx=0;entryDy=0;" edge="1" parent="1" source="hzbVGYCkBPGxg4_tdvoD-158" target="hzbVGYCkBPGxg4_tdvoD-162">
          <mxGeometry relative="1" as="geometry">
            <mxPoint x="2138" y="-689" as="sourcePoint" />
          </mxGeometry>
        </mxCell>
        <mxCell id="hzbVGYCkBPGxg4_tdvoD-190" style="edgeStyle=orthogonalEdgeStyle;rounded=0;orthogonalLoop=1;jettySize=auto;html=1;entryX=0;entryY=0.5;entryDx=0;entryDy=0;" edge="1" parent="1" source="hzbVGYCkBPGxg4_tdvoD-158" target="hzbVGYCkBPGxg4_tdvoD-164">
          <mxGeometry relative="1" as="geometry">
            <mxPoint x="2137.5" y="-639" as="sourcePoint" />
          </mxGeometry>
        </mxCell>
        <mxCell id="hzbVGYCkBPGxg4_tdvoD-198" value="" style="line;strokeWidth=2;html=1;dashed=1;dashPattern=1 4;" vertex="1" parent="1">
          <mxGeometry x="20" y="-550" width="2500" height="10" as="geometry" />
        </mxCell>
        <mxCell id="hzbVGYCkBPGxg4_tdvoD-203" style="edgeStyle=orthogonalEdgeStyle;rounded=0;orthogonalLoop=1;jettySize=auto;html=1;" edge="1" parent="1" source="hzbVGYCkBPGxg4_tdvoD-201" target="hzbVGYCkBPGxg4_tdvoD-176">
          <mxGeometry relative="1" as="geometry" />
        </mxCell>
        <mxCell id="hzbVGYCkBPGxg4_tdvoD-201" value="SearchAPI" style="aspect=fixed;perimeter=ellipsePerimeter;html=1;align=center;shadow=0;dashed=0;spacingTop=3;image;image=img/lib/active_directory/internet_cloud.svg;" vertex="1" parent="1">
          <mxGeometry x="1760" y="-300" width="50" height="31.5" as="geometry" />
        </mxCell>
        <mxCell id="hzbVGYCkBPGxg4_tdvoD-206" style="edgeStyle=orthogonalEdgeStyle;rounded=0;orthogonalLoop=1;jettySize=auto;html=1;" edge="1" parent="1" source="hzbVGYCkBPGxg4_tdvoD-202" target="hzbVGYCkBPGxg4_tdvoD-176">
          <mxGeometry relative="1" as="geometry" />
        </mxCell>
        <mxCell id="hzbVGYCkBPGxg4_tdvoD-202" value="DataTeam S3" style="aspect=fixed;perimeter=ellipsePerimeter;html=1;align=center;shadow=0;dashed=0;spacingTop=3;image;image=img/lib/active_directory/folder.svg;" vertex="1" parent="1">
          <mxGeometry x="2029" y="-309" width="36.5" height="50" as="geometry" />
        </mxCell>
        <mxCell id="hzbVGYCkBPGxg4_tdvoD-219" value="客製化商品分潤模型(PROD)" style="shape=partialRectangle;whiteSpace=wrap;html=1;bottom=1;right=1;left=1;top=0;fillColor=none;routingCenterX=-0.5;" vertex="1" parent="1">
          <mxGeometry x="60" y="-170" width="660" height="40" as="geometry" />
        </mxCell>
        <mxCell id="hzbVGYCkBPGxg4_tdvoD-220" value="商品累進製分潤模型(PGSV)" style="shape=partialRectangle;whiteSpace=wrap;html=1;bottom=1;right=1;left=1;top=0;fillColor=none;routingCenterX=-0.5;" vertex="1" parent="1">
          <mxGeometry x="960" y="-170" width="661" height="40" as="geometry" />
        </mxCell>
        <mxCell id="hzbVGYCkBPGxg4_tdvoD-221" value="新聯盟 520 制分潤模型(COMM)" style="shape=partialRectangle;whiteSpace=wrap;html=1;bottom=1;right=1;left=1;top=0;fillColor=none;routingCenterX=-0.5;" vertex="1" parent="1">
          <mxGeometry x="1740" y="-170" width="660" height="40" as="geometry" />
        </mxCell>
        <mxCell id="hzbVGYCkBPGxg4_tdvoD-223" value="" style="edgeStyle=orthogonalEdgeStyle;rounded=0;orthogonalLoop=1;jettySize=auto;html=1;" edge="1" parent="1" source="hzbVGYCkBPGxg4_tdvoD-222" target="hzbVGYCkBPGxg4_tdvoD-144">
          <mxGeometry relative="1" as="geometry" />
        </mxCell>
        <mxCell id="hzbVGYCkBPGxg4_tdvoD-222" value="affiliate_order_journey" style="aspect=fixed;perimeter=ellipsePerimeter;html=1;align=center;shadow=0;dashed=0;spacingTop=3;image;image=img/lib/active_directory/data_jack.svg;" vertex="1" parent="1">
          <mxGeometry x="1021.25" y="-620" width="27.500000000000004" height="50" as="geometry" />
        </mxCell>
        <mxCell id="hzbVGYCkBPGxg4_tdvoD-224" value="affiliate_revenue_share_setting" style="aspect=fixed;perimeter=ellipsePerimeter;html=1;align=center;shadow=0;dashed=0;spacingTop=3;image;image=img/lib/active_directory/data_jack.svg;" vertex="1" parent="1">
          <mxGeometry x="1530" y="-840" width="27.500000000000004" height="50" as="geometry" />
        </mxCell>
        <mxCell id="hzbVGYCkBPGxg4_tdvoD-227" value="&lt;font style=&quot;font-size: 24px;&quot;&gt;LAST :&amp;nbsp; ===&amp;gt; affiliate_order&lt;br&gt;DDA :&amp;nbsp; &amp;nbsp;===&amp;gt;&amp;nbsp;affiliate_attribution_order&lt;br&gt;&lt;br&gt;PROD：&lt;br&gt;PGSV：&lt;br&gt;COMM：&lt;br&gt;&lt;/font&gt;" style="shape=partialRectangle;whiteSpace=wrap;html=1;bottom=1;right=1;left=1;top=0;fillColor=none;routingCenterX=-0.5;align=left;" vertex="1" parent="1">
          <mxGeometry x="50" y="-1090" width="670" height="200" as="geometry" />
        </mxCell>
      </root>
    </mxGraphModel>
  </diagram>
</mxfile>
